<?xml version="1.0" encoding="iso-8859-1"?>
<!-- Generator: Adobe Illustrator 24.0.1, SVG Export Plug-In . SVG Version: 6.00 Build 0)  -->
<svg version="1.1" id="&#x421;&#x43B;&#x43E;&#x439;_1"
	 xmlns="http://www.w3.org/2000/svg" xmlns:xlink="http://www.w3.org/1999/xlink" x="0px" y="0px" viewBox="0 0 1024 1024"
	 style="enable-background:new 0 0 1024 1024;" xml:space="preserve">
<g>
	<path style="fill:#DBD7D6;" d="M1023.992,512.002c0,282.785-229.251,511.998-511.998,511.998
		C229.296,1024,0.008,794.786,0.008,512.002C0.008,229.23,229.296,0,511.994,0C794.741,0,1023.992,229.23,1023.992,512.002z"/>
	<path style="fill:#C8BFB9;" d="M1008.379,512.002c0,274.14-222.287,496.327-496.385,496.327
		c-274.148,0-496.373-222.187-496.373-496.327c0-274.102,222.225-496.31,496.373-496.31
		C786.092,15.691,1008.379,237.9,1008.379,512.002z"/>
	<g>
		<g>
			<g>
				<g>
					<path style="fill:#633D00;" d="M648.273,144.058c1.64-52.199,24.828-93.804,70.787-92.38
						c49.943,1.548,66.4,44.419,64.776,96.592c-1.66,52.195-16.657,94.016-70.674,92.38
						C657.65,238.906,646.687,196.232,648.273,144.058z"/>
				</g>
				<g>
					<path style="fill:#3E2200;" d="M713.162,240.65c0,0,35.658-24.952,17.731-63.869c-17.968-38.941-27.762-99.559-6.767-124.945
						c0,0-33.814,19.513-22.039,80.21C713.957,192.706,740.408,179.811,713.162,240.65z"/>
				</g>
			</g>
			<g>
				<g>
					<path style="fill:#C79E6A;" d="M624.49,250.835c-35.616-27.932-52.752-65.526-28.178-96.829
						c26.771-34.026,65.176-23.546,100.75,4.375c35.612,27.994,57.056,59.969,28.129,96.85
						C695.518,293.062,660.064,278.777,624.49,250.835z"/>
				</g>
				<g>
					<path style="fill:#856B44;" d="M725.191,255.231c0,0,0.99-37.751-35.45-45.214c-36.428-7.454-83.79-31.775-90.72-59.495
						c0,0-3.696,33.639,44.715,56.59C692.114,230.045,696.742,204.935,725.191,255.231z"/>
				</g>
			</g>
			<g>
				<g>
					<path style="fill:#614113;" d="M640.24,141.623c-29.044,15.271-59.062,15.434-72.456-10.172
						c-14.659-27.895,3.763-50.192,32.882-65.447c29.126-15.275,56.706-20.003,72.514,10.169
						C689.441,107.119,669.459,126.385,640.24,141.623z"/>
				</g>
				<g>
					<path style="fill:#533608;" d="M673.18,76.172c0,0-24.715-11.891-40.54,10.052c-15.766,21.923-45.938,46.059-66.337,42.38
						c0,0,21.086,12.503,50.704-12.762C646.608,90.578,631.374,80.052,673.18,76.172z"/>
				</g>
			</g>
		</g>
		<g>
			<g>
				<g>
					<path style="fill:#694823;" d="M496.777,131.097c30.925,42.063,38.28,89.15,1.285,116.333
						c-40.285,29.602-79.672,5.977-110.598-36.086c-30.925-42.063-44.914-84.281-1.269-116.317
						C430.872,62.204,465.868,89.034,496.777,131.097z"/>
				</g>
				<g>
					<path style="fill:#3C2500;" d="M386.195,95.027c0,0-12.778,41.652,25.365,61.256c38.205,19.529,83.294,61.197,82.387,94.158
						c0,0,14.581-36.224-32.17-76.685C415.085,133.273,402.224,159.708,386.195,95.027z"/>
				</g>
			</g>
			<g>
				<g>
					<path style="fill:#C79E6A;" d="M449.669,32.331c45.268,0.038,81.913,19.109,81.871,58.879c0,43.307-36.719,58.72-82.029,58.641
						c-45.21-0.075-81.896-11.988-81.854-58.879C367.756,42.896,404.459,32.249,449.669,32.331z"/>
				</g>
				<g>
					<path style="fill:#836A43;" d="M367.657,90.973c0,0,22.576,30.33,55.815,13.732c33.281-16.582,85.571-26.671,108.068-9.082
						c0,0-17.769-28.791-70.042-16.957C409.245,90.42,421.137,113.017,367.657,90.973z"/>
				</g>
			</g>
			<g>
				<g>
					<path style="fill:#785020;" d="M504.552,128.05c13.494-29.934,37.035-48.593,63.39-36.681
						c28.69,12.903,27.995,41.827,14.443,71.803c-13.456,29.972-32.265,50.708-63.353,36.719
						C487.221,185.506,491.058,158.043,504.552,128.05z"/>
				</g>
				<g>
					<path style="fill:#56380A;" d="M519.032,199.89c0,0,26.771-5.898,25.681-32.865c-1.066-27.025,7.795-64.66,26.155-74.35
						c0,0-24.353,3.201-32.086,41.389C531.065,172.211,549.524,171.042,519.032,199.89z"/>
				</g>
			</g>
		</g>
		<g>
			<g>
				<g>
					<path style="fill:#8D6137;" d="M259.888,201.239c0.749-52.173,23.225-94.204,69.126-93.604
						c50.022,0.712,67.195,43.288,66.541,95.461c-0.77,52.214-15.055,94.337-69.192,93.566
						C270.926,295.925,259.194,253.408,259.888,201.239z"/>
				</g>
				<g>
					<path style="fill:#62431E;" d="M326.364,296.661c0,0,35.32-25.485,16.698-64.144c-18.696-38.625-29.518-99.048-8.94-124.766
						c0,0-33.514,20.062-20.578,80.543C326.364,248.717,352.618,235.406,326.364,296.661z"/>
				</g>
			</g>
			<g>
				<g>
					<path style="fill:#C79E6A;" d="M237.928,308.411c-36.09-27.304-53.859-64.618-29.838-96.255
						c26.197-34.584,64.718-24.727,100.788,2.614c36.049,27.321,58.146,58.9,29.793,96.293
						C309.665,349.367,273.974,335.774,237.928,308.411z"/>
				</g>
				<g>
					<path style="fill:#856B44;" d="M338.671,311.063c0,0,0.338-37.751-36.224-44.599c-36.544-6.801-84.343-30.251-91.723-57.846
						c0,0-3.109,33.668,45.622,55.748C305.198,286.41,309.411,261.282,338.671,311.063z"/>
				</g>
			</g>
			<g>
				<g>
					<path style="fill:#785020;" d="M251.855,198.999c-28.848,15.708-58.845,16.403-72.751-8.944
						c-15.055-27.654,2.909-50.276,31.794-66.042c28.807-15.749,56.386-20.994,72.714,8.944
						C300.37,163.604,280.741,183.208,251.855,198.999z"/>
				</g>
				<g>
					<path style="fill:#523507;" d="M283.613,132.957c0,0-24.969-11.479-40.307,10.722c-15.492,22.201-45.247,46.85-65.742,43.529
						c0,0,21.444,12.15,50.588-13.631C257.316,147.812,241.904,137.544,283.613,132.957z"/>
				</g>
			</g>
		</g>
	</g>
	<g>
		<path style="opacity:0.31;fill:#5D4D3E;" d="M913.947,270.618c-13.91-22.096-43.054-28.806-65.134-14.996L742.11,322.3
			c-110.061-132.599-303.841-166.746-454.01-72.93C124.279,351.682,74.541,567.338,176.79,731.08
			c102.366,163.762,318.031,213.58,481.768,111.272c150.206-93.8,204.418-282.947,133.569-440.021l106.74-66.637
			C920.952,321.868,927.637,292.724,913.947,270.618z"/>
		<g>
			<g>
				<g>
					<path style="fill:#DBD7D6;" d="M766.268,349.963c-13.848-22.123-7.101-51.25,14.997-65.06l111.468-69.658
						c22.085-13.811,51.283-7.067,65.118,15.038l0,0c13.71,22.097,7.101,51.241-15.059,65.052l-111.469,69.625
						C809.159,378.807,780.057,372.081,766.268,349.963L766.268,349.963z"/>
					<path style="fill:#DBD7D6;" d="M220.755,690.719c-102.253-163.721-52.469-379.399,111.268-481.71
						c163.779-102.291,379.398-52.469,481.689,111.273c102.328,163.746,52.553,379.444-111.231,481.71
						C538.74,904.32,323.079,854.482,220.755,690.719z"/>
				</g>
			</g>
			<path style="fill:#C8BFB9;" d="M237.571,680.255c-96.497-154.484-49.502-357.913,104.9-454.447
				c154.559-96.492,357.913-49.505,454.505,104.979c96.476,154.464,49.502,357.917-104.979,454.406
				C537.513,881.686,334.064,834.699,237.571,680.255z"/>
			<path style="fill:#AD7B3D;" d="M272.929,661.417c-84.822-135.747-43.55-314.564,92.177-399.34
				c135.804-84.822,314.625-43.549,399.422,92.214c84.801,135.725,43.549,314.567-92.256,399.364
				C536.605,838.494,357.763,797.184,272.929,661.417z"/>
			<path style="fill:#280900;" d="M275.38,659.873c-84.031-134.382-43.033-311.417,91.269-395.364
				c134.44-83.969,311.496-43.113,395.407,91.306c83.985,134.381,43.05,311.437-91.307,395.39
				C536.326,835.172,359.365,794.295,275.38,659.873z"/>
			<path style="opacity:0.4;" d="M670.749,751.205c36.362-22.714,65.846-52.316,87.902-85.951
				c-11.949,10.664-24.952,20.52-39.016,29.286c-134.44,83.969-311.396,43.092-395.406-91.31
				c-61.256-98.037-55.99-218.683,3.442-309.419c-102.545,91.285-127.476,245.711-52.29,366.062
				C359.365,794.295,536.326,835.172,670.749,751.205z"/>
			<g>
				<path style="fill:#AD7B3D;" d="M758.792,650.341c0.829,3.538,1.978,6.685,3.38,9.453
					c56.174-90.079,59.928-207.902-0.116-303.979C682.619,228.56,519.744,185.168,388.534,252.163
					c11.117,4.35,21.127,13.456,33.489,13.236c12.607-0.158,22.759-5.498,35.679-0.474c5.519,2.094,11.354,5.456,17.41,5.856
					c24.77,1.623,49.106-36.17,71.462-20.024c0,0.595,0.257,1.148,0.715,1.822c4.745,6.169,10.66,6.806,16.895,12.083
					c4.886,4.158,7.2,10.668,13.173,13.836c2.26,1.186,4.632,0.611,7.046,0.312c9.415-1.224,19.625,8.982,27.208,13.26
					c4.724,2.627,10.031,3.006,15.251,2.373c0.754-0.042,1.344-0.196,1.923-0.575c5.536-4.35,10.701,4.532,13.985,8.807
					c3.422,4.349,7.991,6.963,12.82,9.373c3.442,1.744,8.075,2.614,11.533,3.959c4.929,1.902,7.896,6.809,12.191,9.577
					c6.784,4.391,14.223,7.18,21.427,10.764c8.666,4.312,12.029,14.997,18.043,21.923c5.144,5.956,10.505,9.814,17.352,13.594
					c5.219,2.868,1.956,20.399,1.761,25.814c-0.453,12.861,5.202,35.895,19.783,34.035c-0.433,14.122,1.939,28.033,2.593,42.221
					c0.237,7.263-1.245,13.768-0.495,21.048c0.591,5.382,4.911,11.043,7.875,16.166c-7.638,7.58-9.398,19.172-7.459,29.856
					c0.575,3.084,1.623,8.233,3.858,12.049c-11.217,8.175-10.901,28.212-3.025,39.787c-18.381,10.926-8.766,28.574,4.137,35.658
					C759.7,633.639,756.732,641.08,758.792,650.341z"/>
				<g>
					<path style="fill:#AD7B3D;" d="M743.991,603.287c-4.749-7.638-2.456-17.648,5.245-22.396c7.616-4.75,17.564-2.452,22.392,5.186
						c4.728,7.575,2.356,17.606-5.244,22.392C758.792,613.24,748.72,610.909,743.991,603.287z"/>
					<g>
						<path style="fill:#1A050C;" d="M746.701,601.627c-3.862-6.135-1.956-14.243,4.179-18.085
							c6.131-3.858,14.201-1.977,18.06,4.196c3.842,6.135,2.002,14.206-4.217,18.064
							C758.555,609.639,750.539,607.783,746.701,601.627z"/>
						<path style="fill:#CAC7D4;" d="M753.252,602.143c-2.255-3.679,10.997-11.949,13.253-8.27c2.294,3.68,1.207,8.466-2.452,10.743
							C760.37,606.909,755.524,605.801,753.252,602.143z"/>
						<path style="fill:#75544B;" d="M752.261,585.757c4.903-3.068,11.276-1.757,14.639,2.814c-0.1-0.163-0.1-0.28-0.1-0.4
							c-3.263-5.182-10.143-6.764-15.251-3.517c-5.165,3.205-6.788,10.068-3.5,15.234c0.016,0.117,0.117,0.195,0.296,0.279
							C745.731,595.101,747.338,588.824,752.261,585.757z"/>
					</g>
				</g>
				<g>
					<path style="fill:#AD7B3D;" d="M754.635,566.864c-5.066-8.15-2.61-18.896,5.56-24.02c8.17-5.082,18.896-2.593,23.999,5.582
						c5.107,8.149,2.652,18.892-5.54,23.995C770.501,577.527,759.779,575.038,754.635,566.864z"/>
					<g>
						<path style="fill:#1A050C;" d="M757.485,565.103c-4.133-6.588-2.14-15.271,4.508-19.387c6.535-4.116,15.2-2.102,19.371,4.45
							c4.096,6.588,2.118,15.275-4.491,19.408C770.226,573.69,761.66,571.675,757.485,565.103z"/>
						<path style="fill:#CAC7D4;" d="M764.528,565.657c-2.472-3.917,11.792-12.82,14.206-8.904c2.476,3.959,1.265,9.12-2.614,11.592
							C772.128,570.785,766.979,569.573,764.528,565.657z"/>
						<path style="fill:#75544B;" d="M763.458,548.088c5.224-3.288,12.07-1.898,15.708,3.01c0-0.163,0-0.3-0.133-0.437
							c-3.463-5.54-10.827-7.222-16.345-3.78c-5.524,3.501-7.259,10.781-3.78,16.362c0.079,0.12,0.216,0.195,0.358,0.299
							C756.415,558.119,758.234,551.372,763.458,548.088z"/>
					</g>
				</g>
				<g>
					<path style="fill:#AD7B3D;" d="M670.308,326.613c-3.101-5.024-1.578-11.712,3.446-14.859c5.061-3.146,11.692-1.619,14.88,3.463
						c3.104,5.023,1.539,11.675-3.446,14.842C680.084,333.185,673.476,331.637,670.308,326.613z"/>
					<g>
						<path style="fill:#1A050C;" d="M672.089,325.506c-2.573-4.037-1.282-9.457,2.772-11.966c4.037-2.593,9.435-1.331,12.011,2.789
							c2.568,4.033,1.262,9.414-2.83,11.945C680.064,330.829,674.645,329.58,672.089,325.506z"/>
						<path style="fill:#CAC7D4;" d="M676.405,325.884c-1.424-2.476,7.321-7.937,8.824-5.523c1.502,2.414,0.786,5.619-1.586,7.121
							C681.196,329.01,677.908,328.273,676.405,325.884z"/>
						<path style="fill:#75544B;" d="M675.815,314.979c3.259-1.997,7.437-1.144,9.71,1.882c-0.078-0.101-0.078-0.179-0.137-0.296
							c-2.135-3.405-6.647-4.433-10.089-2.297c-3.405,2.134-4.433,6.651-2.297,10.088c0,0.079,0.1,0.121,0.179,0.221
							C671.419,321.173,672.568,317.039,675.815,314.979z"/>
					</g>
				</g>
				<g>
					<path style="fill:#AD7B3D;" d="M714.236,419.247c-5.049-7.912-2.573-18.401,5.299-23.367
						c8.037-4.945,18.484-2.531,23.429,5.398c4.965,7.958,2.51,18.442-5.419,23.391
						C729.607,429.615,719.122,427.222,714.236,419.247z"/>
					<g>
						<path style="fill:#1A050C;" d="M716.924,417.528c-3.916-6.393-1.939-14.88,4.396-18.817
							c6.405-4.075,14.817-2.098,18.833,4.333c4.034,6.41,2.094,14.838-4.353,18.855C729.428,425.899,721,423.959,716.924,417.528z"
							/>
						<path style="fill:#CAC7D4;" d="M723.85,418.061c-2.377-3.8,11.355-12.444,13.785-8.607c2.381,3.821,1.249,8.845-2.547,11.217
							C731.151,423.047,726.182,421.898,723.85,418.061z"/>
						<path style="fill:#75544B;" d="M722.818,400.983c5.07-3.205,11.696-1.84,15.275,2.914c-0.075-0.121-0.075-0.279-0.137-0.4
							c-3.342-5.398-10.543-7.042-15.925-3.7c-5.381,3.405-7.046,10.506-3.625,15.929c0.025,0.117,0.158,0.199,0.295,0.296
							C715.938,410.739,717.674,404.171,722.818,400.983z"/>
					</g>
				</g>
				<g>
					<path style="fill:#AD7B3D;" d="M727.962,385.774c-3.6-5.781-1.897-13.419,3.921-17.04c5.814-3.642,13.473-1.861,17.073,3.942
						c3.621,5.777,1.923,13.432-3.896,17.053C739.242,393.366,731.563,391.59,727.962,385.774z"/>
					<g>
						<path style="fill:#1A050C;" d="M729.986,384.547c-2.889-4.712-1.449-10.885,3.204-13.81
							c4.708-2.931,10.801-1.507,13.769,3.184c2.93,4.711,1.506,10.863-3.163,13.79
							C739.084,390.636,732.949,389.196,729.986,384.547z"/>
						<path style="fill:#CAC7D4;" d="M735.047,384.942c-1.782-2.81,8.308-9.103,10.089-6.351c1.723,2.788,0.915,6.472-1.915,8.207
							C740.466,388.563,736.749,387.71,735.047,384.942z"/>
						<path style="fill:#75544B;" d="M734.256,372.455c3.7-2.355,8.55-1.365,11.217,2.077c-0.1-0.059-0.1-0.196-0.178-0.254
							c-2.456-3.983-7.659-5.128-11.596-2.714c-3.913,2.493-5.103,7.679-2.626,11.634c0,0.079,0.079,0.12,0.179,0.221
							C729.29,379.556,730.535,374.77,734.256,372.455z"/>
					</g>
				</g>
				<g>
					<path style="fill:#AD7B3D;" d="M744.586,483.824c-4.907-7.913-2.476-18.359,5.42-23.304c7.896-4.949,18.359-2.535,23.342,5.377
						c4.911,7.921,2.497,18.401-5.378,23.35C760.016,494.213,749.569,491.798,744.586,483.824z"/>
					<g>
						<path style="fill:#1A050C;" d="M747.338,482.122c-3.983-6.406-2.043-14.835,4.329-18.834
							c6.472-3.996,14.838-2.036,18.917,4.353c3.954,6.414,2.019,14.822-4.316,18.817
							C759.779,490.475,751.354,488.535,747.338,482.122z"/>
						<path style="fill:#CAC7D4;" d="M754.218,482.679c-2.372-3.838,11.455-12.445,13.794-8.666
							c2.43,3.838,1.265,8.861-2.593,11.237C761.66,487.645,756.59,486.458,754.218,482.679z"/>
						<path style="fill:#75544B;" d="M753.152,465.627c5.166-3.209,11.792-1.864,15.255,2.889c0-0.142-0.042-0.321-0.084-0.4
							c-3.38-5.378-10.422-7.043-15.904-3.676c-5.403,3.38-7.047,10.443-3.7,15.863c0.1,0.117,0.237,0.199,0.375,0.279
							C746.385,475.337,748.05,468.79,753.152,465.627z"/>
					</g>
				</g>
				<g>
					<path style="fill:#AD7B3D;" d="M619.82,294.997c-4.037-6.51-2.098-15.117,4.45-19.192c6.506-4.033,15.096-2.076,19.213,4.433
						c4.033,6.547,2.06,15.113-4.491,19.191C632.444,303.508,623.878,301.507,619.82,294.997z"/>
					<g>
						<path style="fill:#1A050C;" d="M622.151,293.569c-3.364-5.261-1.761-12.145,3.463-15.488
							c5.282-3.284,12.229-1.685,15.496,3.601c3.321,5.244,1.74,12.187-3.605,15.492
							C632.361,300.416,625.419,298.855,622.151,293.569z"/>
						<path style="fill:#CAC7D4;" d="M627.691,294.048c-1.94-3.147,9.456-10.248,11.396-7.122c1.939,3.126,0.973,7.259-2.135,9.22
							C633.789,298.122,629.672,297.174,627.691,294.048z"/>
						<path style="fill:#75544B;" d="M626.863,280c4.196-2.614,9.614-1.502,12.545,2.394c-0.042-0.1-0.042-0.254-0.117-0.338
							c-2.814-4.433-8.591-5.777-13.061-3.005c-4.412,2.752-5.756,8.603-3.047,13.036c0.153,0.1,0.237,0.142,0.316,0.237
							C621.243,287.996,622.625,282.614,626.863,280z"/>
					</g>
				</g>
				<g>
					<path style="fill:#AD7B3D;" d="M742.764,441.997c-5.382-8.624-2.772-19.978,5.894-25.343
						c8.591-5.403,19.945-2.785,25.327,5.839c5.423,8.625,2.81,19.979-5.856,25.365C759.504,453.24,748.166,450.647,742.764,441.997
						z"/>
					<g>
						<path style="fill:#1A050C;" d="M745.79,440.125c-4.375-6.946-2.194-16.129,4.749-20.478
							c6.946-4.354,16.083-2.219,20.403,4.745c4.346,6.946,2.252,16.104-4.674,20.478
							C759.284,449.199,750.164,447.104,745.79,440.125z"/>
						<path style="fill:#CAC7D4;" d="M753.252,440.695c-2.634-4.112,12.421-13.531,14.955-9.357
							c2.614,4.133,1.345,9.594-2.788,12.208C761.243,446.139,755.783,444.853,753.252,440.695z"/>
						<path style="fill:#75544B;" d="M752.082,422.177c5.524-3.504,12.762-2.023,16.599,3.122c-0.079-0.116-0.079-0.274-0.154-0.432
							c-3.584-5.856-11.363-7.633-17.256-3.959c-5.798,3.642-7.675,11.354-3.958,17.215c0.12,0.159,0.195,0.238,0.358,0.358
							C744.745,432.745,746.526,425.657,752.082,422.177z"/>
					</g>
				</g>
				<g>
					<path style="fill:#AD7B3D;" d="M588.72,280.495c-2.851-4.574-1.465-10.625,3.159-13.477c4.591-2.864,10.568-1.482,13.498,3.109
						c2.889,4.608,1.482,10.622-3.088,13.494C597.623,286.489,591.567,285.108,588.72,280.495z"/>
					<g>
						<path style="fill:#1A050C;" d="M590.339,279.488c-2.335-3.684-1.144-8.55,2.531-10.885c3.679-2.297,8.549-1.186,10.863,2.531
							c2.319,3.7,1.245,8.566-2.51,10.884C597.503,284.354,592.633,283.205,590.339,279.488z"/>
						<path style="fill:#CAC7D4;" d="M594.335,279.842c-1.382-2.219,6.568-7.2,8.016-5.007c1.32,2.239,0.654,5.103-1.544,6.509
							C598.609,282.689,595.642,282.018,594.335,279.842z"/>
						<path style="fill:#75544B;" d="M593.681,269.948c2.951-1.84,6.789-1.048,8.949,1.661c-0.1-0.059-0.1-0.138-0.183-0.216
							c-1.977-3.105-6.073-4.054-9.161-2.115c-3.142,1.936-4.091,6.052-2.118,9.178c0.083,0.083,0.121,0.083,0.141,0.158
							C589.769,275.589,590.734,271.809,593.681,269.948z"/>
					</g>
				</g>
				<g>
					<path style="fill:#AD7B3D;" d="M571.701,277.466c-2.631-4.113-1.386-9.556,2.768-12.145c4.1-2.593,9.581-1.308,12.112,2.788
						c2.614,4.138,1.382,9.556-2.768,12.187C579.738,282.851,574.232,281.582,571.701,277.466z"/>
					<g>
						<path style="fill:#1A050C;" d="M573.087,276.558c-2.04-3.347-1.065-7.696,2.297-9.814c3.284-2.057,7.675-1.049,9.769,2.297
							c2.102,3.321,1.074,7.696-2.214,9.769C579.575,280.912,575.222,279.88,573.087,276.558z"/>
						<path style="fill:#CAC7D4;" d="M576.687,276.854c-1.228-1.998,5.931-6.51,7.163-4.491c1.224,1.961,0.633,4.591-1.386,5.815
							C580.525,279.426,577.915,278.835,576.687,276.854z"/>
						<path style="fill:#75544B;" d="M576.129,267.967c2.619-1.661,6.119-0.949,7.921,1.507c0-0.079,0-0.159-0.083-0.196
							c-1.719-2.83-5.398-3.659-8.229-1.902c-2.81,1.744-3.642,5.419-1.939,8.233c0.079,0.058,0.121,0.1,0.195,0.159
							C572.587,273.033,573.487,269.632,576.129,267.967z"/>
					</g>
				</g>
				<g>
					<path style="fill:#AD7B3D;" d="M426.955,280.216c-4-6.351-2.039-14.776,4.329-18.734c6.373-3.996,14.801-2.04,18.701,4.349
						c4.075,6.335,2.114,14.722-4.279,18.717C439.38,288.528,430.947,286.589,426.955,280.216z"/>
					<g>
						<path style="fill:#1A050C;" d="M429.207,278.81c-3.201-5.14-1.682-11.908,3.426-15.113c5.244-3.204,12.007-1.681,15.212,3.484
							c3.221,5.141,1.665,11.908-3.579,15.138C439.217,285.54,432.413,283.954,429.207,278.81z"/>
						<path style="fill:#CAC7D4;" d="M434.71,279.268c-1.961-3.11,9.182-9.99,11.138-6.946c1.881,3.051,0.933,7.105-2.134,9.023
							C440.645,283.243,436.629,282.319,434.71,279.268z"/>
						<path style="fill:#75544B;" d="M433.919,265.537c4.034-2.552,9.378-1.487,12.262,2.372c-0.095-0.137-0.095-0.254-0.175-0.358
							c-2.71-4.329-8.449-5.677-12.762-2.964c-4.312,2.752-5.544,8.446-2.868,12.782c0,0.096,0.137,0.138,0.217,0.254
							C428.337,273.353,429.723,268.109,433.919,265.537z"/>
					</g>
				</g>
				<g>
					<path style="fill:#AD7B3D;" d="M407.564,270.898c-2.772-4.549-1.382-10.522,3.143-13.378
						c4.574-2.822,10.547-1.457,13.377,3.093c2.872,4.533,1.523,10.564-3.084,13.369
						C416.525,276.854,410.411,275.472,407.564,270.898z"/>
					<g>
						<path style="fill:#1A050C;" d="M409.245,269.907c-2.314-3.676-1.207-8.508,2.435-10.801c3.717-2.298,8.583-1.187,10.86,2.472
							c2.273,3.7,1.17,8.549-2.548,10.826C416.388,274.694,411.48,273.591,409.245,269.907z"/>
						<path style="fill:#CAC7D4;" d="M413.121,270.227c-1.34-2.218,6.551-7.163,7.937-4.948c1.424,2.177,0.754,5.065-1.464,6.451
							C417.416,273.074,414.527,272.404,413.121,270.227z"/>
						<path style="fill:#75544B;" d="M412.55,260.451c2.926-1.857,6.705-1.066,8.787,1.643c-0.084-0.078-0.084-0.158-0.084-0.22
							c-1.939-3.126-6.031-4.054-9.099-2.115c-3.109,1.961-4.075,6.015-2.135,9.103c0.059,0.058,0.154,0.095,0.154,0.217
							C408.629,266.032,409.62,262.253,412.55,260.451z"/>
					</g>
				</g>
				<g>
					<path style="fill:#AD7B3D;" d="M450.976,281.598c-3.821-6.031-1.939-14.022,4.15-17.785c6.035-3.796,14.048-1.939,17.81,4.116
						c3.721,6.052,1.939,14.01-4.116,17.81C462.684,289.536,454.755,287.675,450.976,281.598z"/>
					<g>
						<path style="fill:#1A050C;" d="M453.069,280.296c-3.084-4.883-1.503-11.338,3.325-14.38
							c4.907-3.051,11.355-1.549,14.406,3.321c3.001,4.907,1.577,11.318-3.347,14.385
							C462.605,286.668,456.158,285.182,453.069,280.296z"/>
						<path style="fill:#CAC7D4;" d="M458.33,280.712c-1.777-2.926,8.69-9.498,10.567-6.568c1.799,2.889,0.912,6.726-2.06,8.528
							C463.991,284.512,460.149,283.621,458.33,280.712z"/>
						<path style="fill:#75544B;" d="M457.544,267.693c3.913-2.452,8.961-1.424,11.63,2.177c0-0.079,0-0.176-0.117-0.296
							c-2.551-4.096-7.954-5.361-12.066-2.752c-4.116,2.535-5.328,7.975-2.814,12.071c0,0.12,0.179,0.158,0.195,0.237
							C452.299,275.114,453.623,270.127,457.544,267.693z"/>
					</g>
				</g>
				<g>
					<path style="fill:#AD7B3D;" d="M485.16,276.3c-3.521-5.682-1.777-13.199,3.858-16.758c5.719-3.584,13.24-1.844,16.757,3.875
						c3.625,5.681,1.881,13.182-3.838,16.741C496.244,283.742,488.744,281.978,485.16,276.3z"/>
					<g>
						<path style="fill:#1A050C;" d="M487.137,275.052c-2.764-4.587-1.424-10.66,3.146-13.531
							c4.571-2.889,10.626-1.445,13.494,3.126c2.947,4.632,1.507,10.647-3.105,13.531
							C496.04,281.049,490.051,279.642,487.137,275.052z"/>
						<path style="fill:#CAC7D4;" d="M492.049,275.447c-1.644-2.769,8.249-8.941,9.972-6.169c1.718,2.71,0.829,6.31-1.865,7.991
							C497.405,279.014,493.789,278.177,492.049,275.447z"/>
						<path style="fill:#75544B;" d="M491.311,263.206c3.663-2.281,8.413-1.331,10.984,2.073c-0.038-0.117-0.038-0.196-0.142-0.274
							c-2.352-3.901-7.496-5.07-11.376-2.631c-3.838,2.372-5.023,7.475-2.568,11.37c0,0.121,0.116,0.163,0.153,0.238
							C486.488,270.186,487.615,265.478,491.311,263.206z"/>
					</g>
				</g>
				<g>
					<path style="fill:#AD7B3D;" d="M471.629,275.33c-2.177-3.442-1.149-7.991,2.331-10.185c3.484-2.161,8.075-1.133,10.209,2.372
						c2.135,3.5,1.17,8.049-2.372,10.209C478.313,279.904,473.801,278.835,471.629,275.33z"/>
					<g>
						<path style="fill:#1A050C;" d="M472.815,274.619c-1.702-2.81-0.911-6.51,1.94-8.254c2.73-1.777,6.451-0.924,8.211,1.907
							c1.761,2.788,0.891,6.505-1.881,8.245C478.313,278.302,474.555,277.428,472.815,274.619z"/>
						<path style="fill:#CAC7D4;" d="M475.824,274.856c-1.069-1.661,5.024-5.461,6.094-3.796c0.949,1.702,0.475,3.896-1.191,4.945
							C479.029,277.033,476.848,276.516,475.824,274.856z"/>
						<path style="fill:#75544B;" d="M475.35,267.418c2.256-1.428,5.161-0.833,6.726,1.227c0-0.042-0.041-0.121-0.083-0.162
							c-1.482-2.373-4.666-3.085-6.963-1.603c-2.372,1.486-3.126,4.574-1.62,6.946c0.075,0.038,0.117,0.121,0.154,0.121
							C472.377,271.61,473.111,268.804,475.35,267.418z"/>
					</g>
				</g>
				<g>
					<path style="fill:#AD7B3D;" d="M463.991,239.281c-2.215-3.442-1.07-8.033,2.335-10.189c3.484-2.177,8.075-1.124,10.268,2.335
						c2.156,3.463,1.086,8.054-2.372,10.247C470.696,243.831,466.168,242.761,463.991,239.281z"/>
					<g>
						<path style="fill:#1A050C;" d="M465.219,238.532c-1.806-2.81-0.949-6.489,1.898-8.233c2.768-1.782,6.447-0.908,8.233,1.897
							c1.74,2.81,0.907,6.514-1.865,8.233C470.679,242.211,466.938,241.32,465.219,238.532z"/>
						<path style="fill:#CAC7D4;" d="M468.183,238.744c-0.983-1.64,5.069-5.436,6.039-3.738c1.044,1.665,0.57,3.858-1.112,4.907
							C471.429,240.984,469.215,240.467,468.183,238.744z"/>
						<path style="fill:#75544B;" d="M467.75,231.306c2.177-1.402,5.127-0.807,6.685,1.27c0-0.059,0-0.117-0.033-0.179
							c-1.465-2.352-4.591-3.088-6.968-1.603c-2.377,1.486-3.088,4.57-1.565,6.942c0,0.042,0,0.084,0,0.121
							C464.724,235.585,465.573,232.697,467.75,231.306z"/>
					</g>
				</g>
				<g>
					<path style="fill:#AD7B3D;" d="M489.514,246.444c-2.14-3.463-1.066-8.071,2.377-10.209c3.521-2.194,8.029-1.124,10.206,2.377
						c2.218,3.438,1.148,8.012-2.372,10.205C496.244,250.973,491.728,249.928,489.514,246.444z"/>
					<g>
						<path style="fill:#1A050C;" d="M490.779,245.691c-1.76-2.81-0.907-6.489,1.819-8.228c2.851-1.782,6.552-0.911,8.312,1.877
							c1.761,2.793,0.949,6.514-1.956,8.25C496.203,249.371,492.54,248.463,490.779,245.691z"/>
						<path style="fill:#CAC7D4;" d="M493.747,245.929c-1.045-1.661,5.003-5.44,6.056-3.796c1.066,1.661,0.495,3.896-1.128,4.907
							C497.03,248.105,494.821,247.589,493.747,245.929z"/>
						<path style="fill:#75544B;" d="M493.356,238.449c2.193-1.402,5.061-0.807,6.605,1.269c-0.042-0.041-0.042-0.116-0.042-0.199
							c-1.402-2.331-4.607-3.068-6.922-1.544c-2.339,1.448-3.084,4.549-1.661,6.905c0.038,0.084,0.153,0.1,0.153,0.163
							C490.283,242.686,491.058,239.839,493.356,238.449z"/>
					</g>
				</g>
				<g>
					<path style="fill:#AD7B3D;" d="M447.35,263.618c-2.51-3.954-1.265-9.198,2.752-11.751c3.958-2.455,9.203-1.227,11.675,2.731
						c2.535,3.995,1.324,9.277-2.593,11.75C455.125,268.862,449.864,267.634,447.35,263.618z"/>
					<g>
						<path style="fill:#1A050C;" d="M448.774,262.765c-2.036-3.222-1.128-7.455,2.177-9.474c3.151-2.019,7.421-1.032,9.44,2.177
							c2.056,3.205,1.066,7.476-2.181,9.499C454.988,266.981,450.734,265.99,448.774,262.765z"/>
						<path style="fill:#CAC7D4;" d="M452.2,263.027c-1.224-1.902,5.756-6.252,6.984-4.353c1.145,1.939,0.57,4.47-1.328,5.657
							C455.899,265.537,453.39,264.967,452.2,263.027z"/>
						<path style="fill:#75544B;" d="M451.663,254.436c2.514-1.581,5.881-0.907,7.7,1.486c-0.042-0.079-0.042-0.179-0.058-0.217
							c-1.744-2.735-5.307-3.521-8.033-1.86c-2.693,1.74-3.468,5.282-1.84,7.996c0.078,0.075,0.078,0.137,0.171,0.175
							C448.283,259.343,449.036,256.063,451.663,254.436z"/>
					</g>
				</g>
				<g>
					<path style="fill:#AD7B3D;" d="M477.247,289.14c-2.455-3.996-1.186-9.261,2.772-11.754c4.05-2.489,9.236-1.262,11.809,2.693
						c2.476,4.017,1.207,9.261-2.71,11.792C485.085,294.364,479.778,293.136,477.247,289.14z"/>
					<g>
						<path style="fill:#1A050C;" d="M478.75,288.267c-2.094-3.243-1.07-7.476,2.156-9.49c3.263-2.002,7.459-1.049,9.499,2.193
							c2.002,3.247,0.97,7.476-2.193,9.473C484.964,292.466,480.727,291.497,478.75,288.267z"/>
						<path style="fill:#CAC7D4;" d="M482.172,288.545c-1.203-1.915,5.719-6.252,6.946-4.329c1.187,1.915,0.633,4.428-1.265,5.635
							C485.913,291.022,483.383,290.443,482.172,288.545z"/>
						<path style="fill:#75544B;" d="M481.639,279.938c2.53-1.603,5.898-0.924,7.696,1.486c-0.02-0.079-0.079-0.158-0.079-0.217
							c-1.718-2.709-5.24-3.542-8.012-1.86c-2.648,1.702-3.521,5.282-1.782,7.996c0,0.058,0.084,0.095,0.117,0.179
							C478.197,284.828,479.088,281.54,481.639,279.938z"/>
					</g>
				</g>
				<g>
					<path style="fill:#AD7B3D;" d="M503.799,263.697c-2.431-3.958-1.245-9.219,2.81-11.712c3.958-2.531,9.24-1.307,11.671,2.714
						c2.535,3.975,1.307,9.236-2.689,11.728C511.594,268.9,506.308,267.713,503.799,263.697z"/>
					<g>
						<path style="fill:#1A050C;" d="M505.243,262.848c-1.998-3.226-1.028-7.463,2.156-9.46c3.247-2.036,7.518-1.07,9.536,2.198
							c2.023,3.205,1.032,7.442-2.231,9.44C511.519,267.043,507.241,266.07,505.243,262.848z"/>
						<path style="fill:#CAC7D4;" d="M508.689,263.123c-1.19-1.919,5.752-6.273,6.939-4.375c1.227,1.96,0.679,4.474-1.303,5.677
							C512.443,265.62,509.875,265.042,508.689,263.123z"/>
						<path style="fill:#75544B;" d="M508.189,254.515c2.551-1.582,5.856-0.908,7.659,1.465c0-0.059,0-0.138-0.059-0.196
							c-1.744-2.693-5.302-3.526-8.033-1.864c-2.651,1.702-3.442,5.269-1.822,8.016c0.1,0.058,0.1,0.079,0.199,0.142
							C504.71,259.443,505.622,256.18,508.189,254.515z"/>
					</g>
				</g>
				<g>
					<path style="fill:#AD7B3D;" d="M666.079,293.315c-2.219-3.542-1.074-8.133,2.372-10.326c3.5-2.198,8.108-1.145,10.364,2.356
						c2.14,3.521,1.107,8.129-2.41,10.326C672.921,297.885,668.293,296.816,666.079,293.315z"/>
					<g>
						<path style="fill:#1A050C;" d="M667.282,292.545c-1.802-2.847-0.849-6.568,1.961-8.328c2.81-1.803,6.572-0.891,8.308,1.915
							c1.765,2.83,0.949,6.551-1.94,8.354C672.842,296.262,669.084,295.35,667.282,292.545z"/>
						<path style="fill:#CAC7D4;" d="M670.308,292.782c-1.024-1.661,5.127-5.54,6.097-3.821c1.103,1.686,0.595,3.896-1.107,4.965
							C673.671,294.997,671.378,294.485,670.308,292.782z"/>
						<path style="fill:#75544B;" d="M669.833,285.224c2.339-1.424,5.186-0.832,6.768,1.286c0-0.1,0-0.142-0.042-0.179
							c-1.499-2.414-4.608-3.126-7.043-1.623c-2.372,1.506-3.084,4.632-1.581,7.005c0,0.038,0.083,0.12,0.199,0.158
							C666.828,289.536,667.619,286.647,669.833,285.224z"/>
					</g>
				</g>
				<g>
					<path style="fill:#AD7B3D;" d="M583.214,253.47c-2.215-3.504-1.103-8.133,2.377-10.309c3.521-2.177,8.133-1.145,10.348,2.372
						c2.16,3.504,1.086,8.149-2.389,10.309C590.023,258.036,585.432,256.987,583.214,253.47z"/>
					<g>
						<path style="fill:#1A050C;" d="M584.441,252.716c-1.822-2.83-0.891-6.568,1.923-8.349c2.831-1.761,6.589-0.895,8.407,1.935
							c1.699,2.83,0.829,6.552-2.019,8.332C589.94,256.396,586.227,255.526,584.441,252.716z"/>
						<path style="fill:#CAC7D4;" d="M587.471,252.933c-1.008-1.661,5.086-5.477,6.131-3.8c1.091,1.661,0.537,3.921-1.124,4.949
							C590.734,255.148,588.557,254.635,587.471,252.933z"/>
						<path style="fill:#75544B;" d="M587.014,245.396c2.255-1.386,5.186-0.791,6.709,1.285c0-0.058,0-0.158-0.042-0.158
							c-1.482-2.398-4.57-3.126-6.98-1.644c-2.398,1.486-3.093,4.649-1.627,7.026c0,0.021,0.078,0.079,0.12,0.117
							C583.967,249.691,584.761,246.802,587.014,245.396z"/>
					</g>
				</g>
				<g>
					<path style="fill:#1A050C;" d="M708.179,322.497c-1.823-2.885-0.907-6.685,2.019-8.508c2.81-1.818,6.646-0.949,8.503,1.965
						c1.823,2.905,0.833,6.701-2.014,8.524C713.794,326.275,709.998,325.41,708.179,322.497z"/>
					<path style="fill:#CAC7D4;" d="M711.289,322.755c-1.09-1.719,5.202-5.615,6.21-3.896c1.165,1.74,0.575,3.975-1.149,5.066
						C714.627,324.994,712.334,324.478,711.289,322.755z"/>
					<path style="fill:#75544B;" d="M710.789,315.021c2.297-1.424,5.303-0.832,6.926,1.324c-0.042-0.058-0.042-0.095-0.042-0.179
						c-1.581-2.452-4.749-3.184-7.2-1.678c-2.472,1.54-3.201,4.745-1.64,7.201c0,0.058,0.075,0.058,0.075,0.137
						C707.747,319.412,708.492,316.486,710.789,315.021z"/>
				</g>
				<g>
					<path style="fill:#1A050C;" d="M418.939,255.705c-2.751-4.353-1.402-10.089,2.993-12.824
						c4.329-2.689,10.085-1.402,12.699,2.972c2.789,4.349,1.486,10.068-2.85,12.778
						C427.347,261.383,421.653,260.075,418.939,255.705z"/>
					<path style="fill:#CAC7D4;" d="M423.592,256.063c-1.627-2.593,7.754-8.474,9.415-5.86c1.623,2.614,0.811,6.015-1.798,7.617
						C428.658,259.46,425.153,258.631,423.592,256.063z"/>
					<path style="fill:#75544B;" d="M422.856,244.446c3.542-2.16,7.937-1.245,10.388,1.998c0-0.117,0-0.199-0.12-0.296
						c-2.252-3.659-7.118-4.769-10.759-2.497c-3.684,2.277-4.828,7.142-2.493,10.826c0.038,0.079,0.12,0.121,0.237,0.221
						C418.249,251.073,419.355,246.623,422.856,244.446z"/>
				</g>
				<g>
					<path style="fill:#1A050C;" d="M742.11,408.542c-2.71-4.37-1.444-10.085,2.951-12.82c4.37-2.73,10.047-1.424,12.841,2.989
						c2.73,4.333,1.382,10.072-3.03,12.778C750.539,414.223,744.762,412.879,742.11,408.542z"/>
					<path style="fill:#CAC7D4;" d="M746.759,408.921c-1.623-2.61,7.779-8.508,9.415-5.877c1.549,2.573,0.837,5.993-1.777,7.617
						C751.845,412.284,748.362,411.472,746.759,408.921z"/>
					<path style="fill:#75544B;" d="M746.052,397.267c3.517-2.157,7.971-1.207,10.364,1.997c-0.02-0.078-0.02-0.195-0.078-0.257
						c-2.298-3.676-7.101-4.808-10.801-2.515c-3.663,2.298-4.791,7.168-2.535,10.805c0.1,0.079,0.179,0.159,0.221,0.2
						C741.415,403.934,742.526,399.464,746.052,397.267z"/>
				</g>
				<g>
					<path style="fill:#1A050C;" d="M766.147,461.194c-2.788-4.354-1.424-10.089,2.972-12.861
						c4.349-2.693,10.089-1.366,12.861,2.984c2.689,4.353,1.34,10.094-3.03,12.824C774.58,466.854,768.881,465.543,766.147,461.194z
						"/>
					<path style="fill:#CAC7D4;" d="M770.821,461.568c-1.644-2.609,7.754-8.491,9.415-5.898c1.627,2.635,0.79,6.015-1.736,7.638
						C775.845,464.915,772.398,464.141,770.821,461.568z"/>
					<path style="fill:#75544B;" d="M770.068,449.918c3.542-2.143,7.933-1.227,10.485,1.994c-0.079-0.079-0.079-0.217-0.154-0.296
						c-2.297-3.662-7.084-4.765-10.805-2.452c-3.683,2.294-4.786,7.102-2.455,10.76c0.041,0.083,0.12,0.162,0.158,0.237
						C765.518,456.524,766.621,452.091,770.068,449.918z"/>
				</g>
				<g>
					<path style="fill:#1A050C;" d="M768.861,505.988c-2.714-4.337-1.406-10.089,2.947-12.824c4.312-2.73,10.089-1.366,12.824,2.947
						c2.689,4.353,1.402,10.114-3.03,12.844C777.347,511.681,771.57,510.337,768.861,505.988z"/>
					<path style="fill:#CAC7D4;" d="M773.51,506.342c-1.619-2.614,7.754-8.47,9.419-5.877c1.581,2.635,0.807,6.035-1.823,7.659
						C778.575,509.725,775.112,508.955,773.51,506.342z"/>
					<path style="fill:#75544B;" d="M772.782,494.729c3.538-2.161,8.008-1.245,10.384,1.977c-0.042-0.079-0.042-0.179-0.083-0.258
						c-2.294-3.675-7.118-4.803-10.76-2.489c-3.721,2.294-4.786,7.101-2.492,10.801c0,0.079,0.078,0.117,0.195,0.196
						C768.128,501.355,769.314,496.922,772.782,494.729z"/>
				</g>
				<g>
					<path style="fill:#1A050C;" d="M726.972,365.592c-1.144-1.785-0.591-4.174,1.228-5.286c1.786-1.086,4.158-0.575,5.244,1.228
						c1.17,1.782,0.595,4.154-1.203,5.282C730.497,367.923,728.121,367.373,726.972,365.592z"/>
					<path style="fill:#CAC7D4;" d="M728.954,365.708c-0.696-1.048,3.204-3.442,3.838-2.393c0.653,1.048,0.316,2.492-0.754,3.142
						C730.951,367.136,729.544,366.816,728.954,365.708z"/>
					<path style="fill:#75544B;" d="M728.637,360.959c1.424-0.891,3.247-0.512,4.233,0.812c0-0.042,0-0.058,0-0.117
						c-0.986-1.506-2.925-1.96-4.491-1.011c-1.482,0.933-1.956,2.909-0.966,4.433c0,0.042,0,0.042,0.058,0.1
						C726.697,363.69,727.172,361.871,728.637,360.959z"/>
				</g>
				<g>
					<path style="fill:#1A050C;" d="M751.054,391.035c-1.76-2.889-0.891-6.651,1.936-8.47c2.951-1.782,6.709-0.908,8.511,1.981
						c1.857,2.863,0.928,6.668-1.923,8.465C756.657,394.815,752.836,393.924,751.054,391.035z"/>
					<path style="fill:#CAC7D4;" d="M754.118,391.31c-1.065-1.74,5.166-5.618,6.252-3.9c1.074,1.702,0.557,4-1.187,5.091
						C757.485,393.529,755.208,393.012,754.118,391.31z"/>
					<path style="fill:#75544B;" d="M753.727,383.614c2.215-1.44,5.261-0.812,6.784,1.328c0-0.084,0-0.142,0-0.238
						c-1.523-2.397-4.728-3.126-7.159-1.606c-2.44,1.523-3.189,4.691-1.686,7.142c0.079,0.058,0.179,0.083,0.179,0.142
						C750.618,388.005,751.354,385.063,753.727,383.614z"/>
				</g>
				<g>
					<path style="fill:#1A050C;" d="M761.243,414.319c-1.74-2.868-0.874-6.685,1.982-8.483c2.847-1.802,6.684-0.891,8.503,1.936
						c1.782,2.889,0.875,6.689-1.977,8.487C766.8,418.061,763.021,417.191,761.243,414.319z"/>
					<path style="fill:#CAC7D4;" d="M764.307,414.581c-1.007-1.744,5.203-5.619,6.276-3.92c1.045,1.723,0.475,3.995-1.148,5.065
						C767.712,416.816,765.419,416.283,764.307,414.581z"/>
					<path style="fill:#75544B;" d="M763.911,406.861c2.235-1.424,5.207-0.787,6.868,1.323c-0.079-0.058-0.042-0.133-0.079-0.175
						c-1.523-2.452-4.707-3.163-7.163-1.64c-2.372,1.52-3.168,4.708-1.62,7.142c0.075,0.059,0.075,0.079,0.075,0.137
						C760.844,411.276,761.56,408.305,763.911,406.861z"/>
				</g>
				<g>
					<path style="fill:#1A050C;" d="M692.076,342.421c-2.06-3.226-1.112-7.454,2.215-9.477c3.162-2.019,7.417-1.07,9.381,2.218
						c2.053,3.185,1.066,7.438-2.16,9.457C698.286,346.633,694.053,345.647,692.076,342.421z"/>
					<path style="fill:#CAC7D4;" d="M695.518,342.679c-1.227-1.919,5.698-6.256,6.922-4.333c1.149,1.922,0.595,4.433-1.302,5.64
						C699.235,345.209,696.742,344.619,695.518,342.679z"/>
					<path style="fill:#75544B;" d="M694.923,334.092c2.614-1.581,5.935-0.907,7.696,1.503c0-0.079,0-0.154-0.079-0.237
						c-1.681-2.689-5.224-3.521-7.991-1.84c-2.635,1.702-3.542,5.286-1.84,8.012c0.075,0.042,0.175,0.079,0.175,0.137
						C691.56,339.016,692.351,335.695,694.923,334.092z"/>
				</g>
				<g>
					<path style="fill:#1A050C;" d="M508.032,246.957c-2.747-4.35-1.424-10.089,2.972-12.82c4.271-2.71,10.089-1.382,12.757,2.967
						c2.788,4.353,1.486,10.089-2.947,12.824C516.501,252.659,510.687,251.352,508.032,246.957z"/>
					<path style="fill:#CAC7D4;" d="M512.643,247.335c-1.549-2.593,7.775-8.471,9.398-5.877c1.661,2.573,0.87,6.015-1.702,7.638
						C517.704,250.719,514.324,249.928,512.643,247.335z"/>
					<path style="fill:#75544B;" d="M511.952,235.723c3.48-2.198,7.991-1.249,10.405,1.977c-0.02-0.1-0.02-0.199-0.037-0.274
						c-2.297-3.683-7.205-4.77-10.842-2.535c-3.722,2.336-4.754,7.159-2.493,10.843c0.058,0.079,0.153,0.121,0.179,0.196
						C507.299,242.348,508.468,237.9,511.952,235.723z"/>
				</g>
				<g>
					<path style="fill:#1A050C;" d="M601.14,259.069c-1.103-1.861-0.57-4.275,1.249-5.386c1.861-1.186,4.233-0.591,5.361,1.228
						c1.165,1.802,0.65,4.216-1.207,5.381C604.724,261.441,602.289,260.887,601.14,259.069z"/>
					<path style="fill:#CAC7D4;" d="M603.105,259.189c-0.716-1.07,3.263-3.567,3.95-2.476c0.695,1.107,0.378,2.535-0.787,3.221
						C605.178,260.612,603.792,260.292,603.105,259.189z"/>
					<path style="fill:#75544B;" d="M602.842,254.319c1.448-0.911,3.305-0.537,4.295,0.829c0-0.038,0-0.075-0.083-0.117
						c-0.908-1.502-2.943-2.019-4.425-1.048c-1.586,1.011-2.06,3.005-1.09,4.57c0.075,0,0.075,0.042,0.075,0.059
						C600.844,257.108,601.319,255.269,602.842,254.319z"/>
				</g>
				<g>
					<path style="fill:#1A050C;" d="M612.12,272.895c-0.691-1.106-0.254-2.551,0.774-3.263c1.165-0.712,2.589-0.354,3.284,0.749
						c0.695,1.112,0.378,2.593-0.712,3.289C614.297,274.36,612.832,274.024,612.12,272.895z"/>
					<path style="fill:#CAC7D4;" d="M613.331,273.016c-0.437-0.695,1.998-2.193,2.452-1.523c0.396,0.674,0.158,1.54-0.512,1.939
						C614.676,273.865,613.764,273.649,613.331,273.016z"/>
					<path style="fill:#75544B;" d="M613.21,270.007c0.849-0.533,1.998-0.313,2.573,0.516v-0.058
						c-0.575-0.933-1.798-1.228-2.689-0.616c-1.008,0.533-1.228,1.802-0.674,2.735c0,0.017,0,0.038,0,0.059
						C611.925,271.73,612.241,270.585,613.21,270.007z"/>
				</g>
				<g>
					<path style="fill:#1A050C;" d="M619.32,260.571c-0.686-1.086-0.374-2.567,0.778-3.263c1.07-0.695,2.527-0.337,3.238,0.771
						c0.679,1.111,0.4,2.567-0.745,3.246C621.48,262.016,620.016,261.72,619.32,260.571z"/>
					<path style="fill:#CAC7D4;" d="M620.532,260.671c-0.433-0.654,2.018-2.119,2.372-1.482c0.433,0.67,0.179,1.519-0.474,1.936
						C621.818,261.541,620.885,261.362,620.532,260.671z"/>
					<path style="fill:#75544B;" d="M620.295,257.724c0.874-0.558,2.094-0.321,2.689,0.474c0,0,0,0,0-0.042
						c-0.595-0.949-1.897-1.227-2.805-0.637c-0.933,0.558-1.232,1.823-0.595,2.735c0,0.038,0,0.038,0,0.059
						C619.125,259.385,619.441,258.298,620.295,257.724z"/>
				</g>
				<g>
					<path style="fill:#1A050C;" d="M628.403,262.906c-0.712-1.107-0.313-2.614,0.753-3.284c1.095-0.712,2.577-0.374,3.289,0.754
						c0.712,1.107,0.332,2.568-0.771,3.28C630.583,264.33,629.156,264.013,628.403,262.906z"/>
					<path style="fill:#CAC7D4;" d="M629.593,262.985c-0.437-0.637,1.998-2.176,2.414-1.502c0.354,0.653,0.199,1.544-0.475,1.961
						C630.895,263.876,629.988,263.618,629.593,262.985z"/>
					<path style="fill:#75544B;" d="M629.435,260.017c0.865-0.533,2.035-0.32,2.614,0.512c0-0.038,0-0.038,0-0.079
						c-0.579-0.908-1.798-1.203-2.714-0.633c-0.965,0.591-1.245,1.785-0.653,2.768c0,0.025,0,0.025,0,0.041
						C628.269,261.72,628.565,260.571,629.435,260.017z"/>
				</g>
				<g>
					<path style="fill:#1A050C;" d="M620.016,269.316c-0.787-1.307-0.433-3.009,0.87-3.838c1.266-0.816,3.047-0.396,3.8,0.912
						c0.87,1.302,0.453,3.005-0.807,3.837C622.55,271.018,620.786,270.66,620.016,269.316z"/>
					<path style="fill:#CAC7D4;" d="M621.36,269.432c-0.475-0.749,2.377-2.531,2.851-1.74c0.474,0.754,0.279,1.782-0.517,2.277
						C622.904,270.465,621.818,270.227,621.36,269.432z"/>
					<path style="fill:#75544B;" d="M621.168,265.953c1.066-0.633,2.447-0.358,3.201,0.591c-0.042-0.038-0.042-0.038-0.1-0.079
						c-0.654-1.066-2.118-1.44-3.184-0.712c-1.129,0.674-1.503,2.098-0.833,3.189c0.042,0.042,0.042,0.042,0.042,0.1
						C619.82,267.93,620.153,266.602,621.168,265.953z"/>
				</g>
				<g>
					<path style="fill:#1A050C;" d="M611.612,283.879c-0.832-1.324-0.416-3.051,0.886-3.842c1.266-0.828,3.026-0.433,3.8,0.875
						c0.87,1.323,0.454,3.005-0.832,3.838C614.18,285.582,612.42,285.182,611.612,283.879z"/>
					<path style="fill:#CAC7D4;" d="M612.973,283.954c-0.475-0.749,2.356-2.489,2.81-1.719c0.516,0.771,0.316,1.761-0.512,2.277
						C614.501,284.987,613.489,284.75,612.973,283.954z"/>
					<path style="fill:#75544B;" d="M612.774,280.495c1.032-0.653,2.435-0.378,3.067,0.612c0-0.058,0-0.1,0-0.117
						c-0.632-1.086-2.114-1.427-3.221-0.753c-1.112,0.712-1.424,2.156-0.712,3.242c0,0.042,0.017,0.042,0.017,0.101
						C611.35,282.473,611.766,281.149,612.774,280.495z"/>
				</g>
				<g>
					<path style="fill:#1A050C;" d="M476.515,254.794c-0.732-1.265-0.412-2.967,0.812-3.78c1.302-0.77,2.926-0.374,3.8,0.891
						c0.791,1.303,0.358,2.947-0.933,3.78C478.95,256.454,477.247,256.063,476.515,254.794z"/>
					<path style="fill:#CAC7D4;" d="M477.822,254.873c-0.495-0.716,2.314-2.452,2.747-1.665c0.516,0.712,0.279,1.744-0.475,2.202
						C479.325,255.884,478.313,255.685,477.822,254.873z"/>
					<path style="fill:#75544B;" d="M477.647,251.509c1.024-0.632,2.331-0.378,3.08,0.554c-0.058,0-0.058-0.042-0.058-0.079
						c-0.69-1.048-2.073-1.402-3.184-0.712c-1.028,0.632-1.382,2.056-0.754,3.163c0,0.042,0.117,0.042,0.117,0.058
						C476.34,253.408,476.657,252.143,477.647,251.509z"/>
				</g>
				<g>
					<path style="fill:#1A050C;" d="M661.963,297.689c-0.812-1.249-0.396-2.967,0.907-3.737c1.228-0.817,2.909-0.442,3.683,0.865
						c0.833,1.249,0.391,2.931-0.794,3.742C664.435,299.351,662.79,298.955,661.963,297.689z"/>
					<path style="fill:#CAC7D4;" d="M663.265,297.848c-0.396-0.795,2.297-2.514,2.814-1.782c0.474,0.791,0.216,1.782-0.599,2.256
						C664.751,298.814,663.86,298.56,663.265,297.848z"/>
					<path style="fill:#75544B;" d="M663.107,294.402c1.066-0.628,2.356-0.354,3.047,0.595c0,0,0-0.038-0.075-0.095
						c-0.616-1.054-2.06-1.39-3.126-0.716c-1.07,0.691-1.386,2.077-0.754,3.188c0.058,0,0.058,0,0.117,0.038
						C661.725,296.341,662.12,295.034,663.107,294.402z"/>
				</g>
				<g>
					<path style="fill:#1A050C;" d="M608.74,265.32c-1.685-2.614-0.891-6.056,1.719-7.659c2.635-1.623,6.031-0.853,7.7,1.782
						c1.619,2.573,0.787,5.998-1.823,7.633C613.727,268.704,610.322,267.909,608.74,265.32z"/>
					<path style="fill:#CAC7D4;" d="M611.508,265.537c-0.966-1.561,4.591-5.045,5.577-3.521c0.974,1.544,0.5,3.604-0.986,4.57
						C614.501,267.551,612.42,267.06,611.508,265.537z"/>
					<path style="fill:#75544B;" d="M611.034,258.594c2.118-1.311,4.807-0.754,6.289,1.165c0-0.02-0.117-0.095-0.117-0.137
						c-1.366-2.198-4.312-2.889-6.426-1.503c-2.202,1.366-2.931,4.271-1.49,6.448c0,0.02,0.062,0.079,0.1,0.12
						C608.324,262.553,608.978,259.901,611.034,258.594z"/>
				</g>
				<g>
					<path style="fill:#1A050C;" d="M652.601,305.285c-0.849-1.269-0.433-2.947,0.891-3.717c1.307-0.816,2.909-0.4,3.742,0.866
						c0.77,1.269,0.312,2.93-0.853,3.725C655.115,306.988,653.397,306.593,652.601,305.285z"/>
					<path style="fill:#CAC7D4;" d="M653.987,305.423c-0.474-0.771,2.215-2.473,2.672-1.719c0.512,0.728,0.279,1.76-0.458,2.252
						C655.432,306.397,654.445,306.16,653.987,305.423z"/>
					<path style="fill:#75544B;" d="M653.709,302.002c1.09-0.637,2.372-0.338,3.11,0.591c0-0.038,0-0.058,0-0.075
						c-0.737-1.09-2.119-1.427-3.209-0.712c-1.066,0.65-1.441,2.056-0.712,3.126c0,0.033,0,0.033,0.084,0.075
						C652.422,303.941,652.743,302.676,653.709,302.002z"/>
				</g>
				<g>
					<path style="fill:#1A050C;" d="M676.01,298.46c-0.791-1.249-0.4-2.968,0.829-3.738c1.307-0.77,2.967-0.4,3.738,0.865
						c0.832,1.312,0.458,2.972-0.846,3.763C678.499,300.162,676.763,299.745,676.01,298.46z"/>
					<path style="fill:#CAC7D4;" d="M677.354,298.56c-0.474-0.712,2.273-2.456,2.73-1.661c0.433,0.748,0.28,1.74-0.495,2.214
						C678.815,299.588,677.866,299.351,677.354,298.56z"/>
					<path style="fill:#75544B;" d="M677.196,295.196c0.949-0.674,2.277-0.378,2.989,0.575c0-0.02,0-0.058,0-0.058
						c-0.712-1.09-2.119-1.428-3.185-0.716c-1.09,0.632-1.39,2.056-0.712,3.126c0,0.021,0.075,0.021,0.075,0.058
						C675.815,297.136,676.127,295.829,677.196,295.196z"/>
				</g>
				<g>
					<path style="fill:#1A050C;" d="M696.884,326.297c-0.754-1.228-0.379-2.964,0.907-3.717c1.228-0.833,2.951-0.442,3.721,0.828
						c0.771,1.286,0.396,2.984-0.849,3.763C699.352,327.957,697.716,327.603,696.884,326.297z"/>
					<path style="fill:#CAC7D4;" d="M698.286,326.434c-0.495-0.77,2.235-2.489,2.689-1.74c0.537,0.774,0.242,1.782-0.491,2.239
						C699.751,327.408,698.761,327.17,698.286,326.434z"/>
					<path style="fill:#75544B;" d="M698.049,323.054c1.066-0.679,2.335-0.4,3.047,0.533c0,0,0-0.016-0.017-0.058
						c-0.695-1.07-2.101-1.407-3.184-0.712c-1.094,0.67-1.39,2.056-0.679,3.142c0,0.021,0,0.042,0.042,0.042
						C696.742,324.952,697.062,323.687,698.049,323.054z"/>
				</g>
				<g>
					<path style="fill:#1A050C;" d="M689.287,328.236c-0.816-1.269-0.416-2.93,0.887-3.758c1.228-0.754,2.873-0.374,3.722,0.891
						c0.787,1.245,0.432,2.964-0.849,3.738C691.739,329.896,690.095,329.518,689.287,328.236z"/>
					<path style="fill:#CAC7D4;" d="M690.648,328.357c-0.475-0.754,2.235-2.473,2.73-1.744c0.475,0.795,0.238,1.782-0.495,2.255
						C692.114,329.364,691.123,329.106,690.648,328.357z"/>
					<path style="fill:#75544B;" d="M690.453,324.952c0.949-0.637,2.331-0.338,3.084,0.553c0,0-0.075,0-0.075-0.038
						c-0.679-1.07-2.102-1.406-3.151-0.737c-1.129,0.679-1.441,2.081-0.771,3.151c0.079,0.017,0.079,0.075,0.117,0.075
						C689.108,326.892,689.441,325.585,690.453,324.952z"/>
				</g>
				<g>
					<path style="fill:#1A050C;" d="M691.818,317.673c-2.039-3.284-1.048-7.6,2.256-9.698c3.263-2.019,7.575-1.045,9.69,2.277
						c2.043,3.263,0.973,7.558-2.252,9.614C698.207,321.942,693.854,320.936,691.818,317.673z"/>
					<path style="fill:#CAC7D4;" d="M695.335,317.927c-1.203-1.956,5.802-6.39,7.105-4.412c1.149,1.939,0.595,4.512-1.344,5.761
						C699.139,320.445,696.563,319.866,695.335,317.927z"/>
					<path style="fill:#75544B;" d="M694.844,309.202c2.535-1.644,5.956-0.97,7.775,1.465c0-0.058-0.037-0.121-0.079-0.179
						c-1.74-2.789-5.323-3.617-8.153-1.881c-2.71,1.702-3.559,5.344-1.835,8.116c0.037,0.079,0.141,0.096,0.141,0.138
						C691.302,314.168,692.134,310.846,694.844,309.202z"/>
				</g>
				<g>
					<path style="fill:#1A050C;" d="M765.772,523.103c-2.073-3.267-1.083-7.6,2.239-9.656c3.305-2.06,7.596-1.07,9.656,2.214
						c2.014,3.305,1.024,7.622-2.277,9.636C772.128,527.39,767.833,526.382,765.772,523.103z"/>
					<path style="fill:#CAC7D4;" d="M769.277,523.357c-1.265-1.94,5.877-6.373,7.08-4.392c1.245,1.961,0.679,4.512-1.382,5.74
						C773.114,525.933,770.501,525.296,769.277,523.357z"/>
					<path style="fill:#75544B;" d="M768.761,514.649c2.614-1.62,5.977-0.986,7.833,1.49c0-0.104-0.038-0.141-0.075-0.221
						c-1.781-2.73-5.381-3.601-8.153-1.898c-2.768,1.719-3.642,5.382-1.877,8.15c0.016,0.079,0.117,0.1,0.133,0.159
						C765.256,519.635,766.147,516.272,768.761,514.649z"/>
				</g>
				<g>
					<path style="fill:#1A050C;" d="M761.918,535.86c-1.723-2.727-0.89-6.327,1.857-8.029c2.714-1.744,6.293-0.875,8.033,1.818
						c1.702,2.772,0.911,6.373-1.898,8.071C767.179,539.464,763.621,538.632,761.918,535.86z"/>
					<path style="fill:#CAC7D4;" d="M764.807,536.101c-0.933-1.627,4.866-5.345,5.931-3.68c1.012,1.62,0.579,3.78-1.107,4.787
						C768.012,538.195,765.835,537.72,764.807,536.101z"/>
					<path style="fill:#75544B;" d="M764.369,528.78c2.135-1.349,5.066-0.774,6.572,1.302c-0.041-0.075-0.041-0.158-0.12-0.216
						c-1.386-2.273-4.512-2.984-6.709-1.603c-2.373,1.465-3.068,4.512-1.644,6.826c0,0.021,0.104,0.096,0.162,0.137
						C761.444,532.971,762.172,530.162,764.369,528.78z"/>
				</g>
				<g>
					<path style="fill:#1A050C;" d="M775.491,540.53c-3.363-5.261-1.744-12.225,3.543-15.529c5.361-3.288,12.245-1.702,15.566,3.617
						c3.305,5.265,1.74,12.208-3.596,15.513C785.701,547.456,778.733,545.833,775.491,540.53z"/>
					<path style="fill:#CAC7D4;" d="M781.106,541.004c-1.939-3.168,9.415-10.285,11.396-7.122c2.019,3.126,1.054,7.284-2.135,9.257
						C787.241,545.099,783.083,544.13,781.106,541.004z"/>
					<path style="fill:#75544B;" d="M780.236,526.915c4.274-2.609,9.718-1.498,12.623,2.381c-0.042-0.1-0.042-0.204-0.078-0.321
						c-2.827-4.433-8.667-5.814-13.12-3.025c-4.508,2.768-5.756,8.666-3.026,13.077c0.058,0.159,0.159,0.2,0.237,0.275
						C774.638,534.932,776.003,529.567,780.236,526.915z"/>
				</g>
				<g>
					<path style="fill:#1A050C;" d="M763.774,387.41c-0.812-1.261-0.416-2.947,0.774-3.738c1.361-0.786,2.989-0.432,3.817,0.875
						c0.754,1.261,0.396,2.963-0.829,3.758C766.268,389.054,764.528,388.696,763.774,387.41z"/>
					<path style="fill:#CAC7D4;" d="M765.081,387.552c-0.432-0.794,2.294-2.489,2.752-1.744c0.491,0.754,0.296,1.765-0.537,2.219
						C766.505,388.522,765.576,388.305,765.081,387.552z"/>
					<path style="fill:#75544B;" d="M764.944,384.147c0.966-0.654,2.314-0.416,3.026,0.557c0-0.02,0-0.02-0.079-0.083
						c-0.633-1.066-2.056-1.382-3.168-0.712c-1.024,0.67-1.365,2.077-0.67,3.126c0,0.042,0,0.042,0.059,0.1
						C763.537,386.07,763.911,384.742,764.944,384.147z"/>
				</g>
				<g>
					<path style="fill:#1A050C;" d="M760.648,398.153c-0.791-1.303-0.374-2.964,0.853-3.796c1.282-0.771,3.026-0.396,3.78,0.891
						c0.791,1.285,0.433,2.972-0.833,3.758C763.142,399.797,761.444,399.422,760.648,398.153z"/>
					<path style="fill:#CAC7D4;" d="M761.993,398.257c-0.432-0.774,2.314-2.514,2.772-1.724c0.517,0.733,0.316,1.761-0.516,2.219
						C763.537,399.226,762.467,399.006,761.993,398.257z"/>
					<path style="fill:#75544B;" d="M761.818,394.853c1.065-0.654,2.398-0.375,3.126,0.574c0-0.037-0.1-0.078-0.1-0.078
						c-0.628-1.07-2.094-1.424-3.105-0.754c-1.106,0.695-1.464,2.098-0.774,3.168c0,0,0.063,0.016,0.063,0.079
						C760.511,396.771,760.844,395.485,761.818,394.853z"/>
				</g>
				<g>
					<path style="fill:#1A050C;" d="M771.807,406.074c-0.749-1.311-0.316-2.972,0.911-3.763c1.224-0.811,2.889-0.396,3.759,0.832
						c0.715,1.303,0.395,2.947-0.908,3.78C774.338,407.71,772.603,407.335,771.807,406.074z"/>
					<path style="fill:#CAC7D4;" d="M773.193,406.149c-0.475-0.712,2.297-2.489,2.772-1.702c0.453,0.753,0.154,1.743-0.575,2.218
						C774.696,407.139,773.689,406.923,773.193,406.149z"/>
					<path style="fill:#75544B;" d="M772.957,402.769c1.028-0.654,2.331-0.379,3.047,0.553c0,0,0-0.02-0.037-0.062
						c-0.679-1.066-2.06-1.424-3.093-0.729c-1.066,0.671-1.382,2.077-0.745,3.163c0,0.021,0.075,0.021,0.075,0.059
						C771.628,404.684,772.007,403.381,772.957,402.769z"/>
				</g>
				<g>
					<path style="fill:#1A050C;" d="M768.407,396.455c-0.771-1.266-0.396-2.947,0.907-3.742c1.269-0.807,2.931-0.391,3.721,0.874
						c0.87,1.266,0.433,2.947-0.832,3.758C770.941,398.12,769.277,397.741,768.407,396.455z"/>
					<path style="fill:#CAC7D4;" d="M769.831,396.551c-0.517-0.745,2.214-2.447,2.709-1.698c0.495,0.774,0.275,1.76-0.495,2.235
						C771.316,397.562,770.284,397.345,769.831,396.551z"/>
					<path style="fill:#75544B;" d="M769.593,393.171c1.07-0.654,2.373-0.358,3.01,0.553c0,0,0-0.038,0-0.078
						c-0.637-1.07-2.06-1.366-3.126-0.696c-1.07,0.654-1.465,2.082-0.716,3.151c0,0,0,0.037,0.037,0.037
						C768.207,395.11,768.602,393.803,769.593,393.171z"/>
				</g>
				<g>
					<path style="fill:#1A050C;" d="M787.894,472.628c-0.829-1.249-0.475-2.926,0.829-3.721c1.232-0.791,2.892-0.433,3.704,0.832
						c0.833,1.307,0.433,2.989-0.832,3.758C790.308,474.292,788.623,473.914,787.894,472.628z"/>
					<path style="fill:#CAC7D4;" d="M789.218,472.769c-0.495-0.774,2.218-2.493,2.693-1.724c0.516,0.749,0.254,1.74-0.475,2.215
						C790.683,473.735,789.692,473.497,789.218,472.769z"/>
					<path style="fill:#75544B;" d="M788.981,469.343c1.031-0.633,2.377-0.378,3.047,0.596c0,0,0-0.042-0.021-0.084
						c-0.649-1.066-2.052-1.399-3.104-0.712c-1.149,0.632-1.482,2.06-0.754,3.168c0,0,0,0.042,0.079,0.042
						C787.632,471.304,787.99,469.997,788.981,469.343z"/>
				</g>
				<g>
					<path style="fill:#1A050C;" d="M785.023,519.24c-0.829-1.266-0.391-2.968,0.833-3.738c1.327-0.812,3.047-0.433,3.8,0.849
						c0.79,1.245,0.391,2.947-0.87,3.721C787.499,520.926,785.776,520.51,785.023,519.24z"/>
					<path style="fill:#CAC7D4;" d="M786.351,519.34c-0.413-0.771,2.273-2.473,2.788-1.744c0.4,0.778,0.241,1.765-0.533,2.26
						C787.894,520.351,786.846,520.093,786.351,519.34z"/>
					<path style="fill:#75544B;" d="M786.209,515.96c0.973-0.637,2.339-0.4,3.009,0.57c0-0.021,0-0.079,0-0.079
						c-0.67-1.086-2.135-1.382-3.185-0.754c-1.048,0.679-1.402,2.077-0.732,3.188c0,0,0.079,0.037,0.079,0.079
						C784.868,517.9,785.127,516.572,786.209,515.96z"/>
				</g>
				<g>
					<path style="fill:#1A050C;" d="M778.95,515.74c-0.849-1.245-0.449-2.947,0.77-3.738c1.386-0.794,3.051-0.416,3.8,0.866
						c0.875,1.307,0.453,2.951-0.869,3.763C781.364,517.421,779.682,517.026,778.95,515.74z"/>
					<path style="fill:#CAC7D4;" d="M780.236,515.861c-0.433-0.754,2.372-2.477,2.847-1.686c0.436,0.754,0.237,1.702-0.57,2.202
						C781.78,516.867,780.789,516.63,780.236,515.861z"/>
					<path style="fill:#75544B;" d="M780.057,512.477c1.048-0.674,2.372-0.378,3.026,0.595c0-0.042,0-0.042,0-0.12
						c-0.654-1.066-2.057-1.386-3.201-0.712c-0.95,0.67-1.308,2.077-0.674,3.163c0,0.041,0,0.041,0,0.041
						C778.692,514.411,779.033,513.105,780.057,512.477z"/>
				</g>
				<g>
					<path style="fill:#1A050C;" d="M779.208,522.012c-0.829-1.265-0.475-2.967,0.849-3.737c1.307-0.816,2.951-0.417,3.738,0.849
						c0.836,1.286,0.399,2.967-0.866,3.758C781.601,523.694,779.998,523.298,779.208,522.012z"/>
					<path style="fill:#CAC7D4;" d="M780.632,522.17c-0.495-0.795,2.18-2.514,2.689-1.76c0.475,0.77,0.199,1.76-0.508,2.235
						C782.018,523.103,781.026,522.882,780.632,522.17z"/>
					<path style="fill:#75544B;" d="M780.315,518.728c1.049-0.633,2.336-0.354,3.047,0.595c0-0.042,0-0.042-0.042-0.083
						c-0.67-1.087-2.056-1.383-3.084-0.712c-1.07,0.633-1.503,2.06-0.754,3.126c0,0.041,0.083,0.058,0.083,0.083
						C779.033,520.663,779.328,519.361,780.315,518.728z"/>
				</g>
				<g>
					<path style="fill:#1A050C;" d="M784.074,512.377c-0.991-1.624-0.517-3.68,1.111-4.712c1.582-1.007,3.717-0.533,4.687,1.112
						c1.049,1.603,0.575,3.7-0.969,4.687C787.241,514.475,785.127,513.979,784.074,512.377z"/>
					<path style="fill:#CAC7D4;" d="M785.776,512.514c-0.592-0.949,2.847-3.126,3.525-2.135c0.57,0.928,0.238,2.219-0.678,2.81
						C787.699,513.783,786.429,513.463,785.776,512.514z"/>
					<path style="fill:#75544B;" d="M785.538,508.243c1.308-0.816,2.926-0.475,3.842,0.729c0-0.038,0-0.079,0-0.138
						c-0.832-1.344-2.655-1.743-4-0.89c-1.307,0.849-1.823,2.63-0.908,3.975c0.038,0.041,0.038,0.062,0.038,0.083
						C783.836,510.691,784.294,509.03,785.538,508.243z"/>
				</g>
				<g>
					<path style="fill:#1A050C;" d="M762.309,498.429c-0.807-1.248-0.391-2.888,0.833-3.659c1.227-0.812,2.931-0.416,3.659,0.808
						c0.736,1.269,0.378,2.93-0.807,3.683C764.69,500.048,763.021,499.653,762.309,498.429z"/>
					<path style="fill:#CAC7D4;" d="M763.621,498.525c-0.479-0.729,2.214-2.431,2.647-1.678c0.516,0.754,0.237,1.702-0.495,2.193
						C765.081,499.498,764.112,499.261,763.621,498.525z"/>
					<path style="fill:#75544B;" d="M763.358,495.245c1.011-0.654,2.314-0.416,3.026,0.533c-0.075-0.042-0.075-0.058-0.075-0.058
						c-0.637-1.091-2.002-1.407-3.009-0.737c-1.129,0.638-1.383,2.019-0.729,3.093c0,0,0,0.033,0.058,0.033
						C762.056,497.118,762.43,495.815,763.358,495.245z"/>
				</g>
				<g>
					<path style="fill:#1A050C;" d="M769.477,588.016c-2.023-3.184-1.07-7.401,2.094-9.378c3.242-1.981,7.463-1.011,9.456,2.152
						c1.982,3.208,0.991,7.421-2.172,9.402C775.608,592.212,771.433,591.221,769.477,588.016z"/>
					<path style="fill:#CAC7D4;" d="M772.873,588.291c-1.245-1.919,5.702-6.214,6.847-4.291c1.228,1.877,0.595,4.408-1.261,5.594
						C776.556,590.788,773.985,590.193,772.873,588.291z"/>
					<path style="fill:#75544B;" d="M772.323,579.784c2.531-1.62,5.853-0.933,7.559,1.448c0-0.062,0-0.141,0-0.179
						c-1.707-2.713-5.245-3.526-7.916-1.864c-2.689,1.702-3.559,5.227-1.898,7.916c0.121,0.079,0.159,0.142,0.216,0.158
						C768.94,584.654,769.751,581.386,772.323,579.784z"/>
				</g>
				<g>
					<path style="fill:#1A050C;" d="M788.073,556.517c-1.644-2.651-0.833-6.135,1.798-7.796c2.631-1.661,6.114-0.828,7.776,1.782
						c1.661,2.668,0.874,6.152-1.799,7.796C793.218,559.959,789.692,559.189,788.073,556.517z"/>
					<path style="fill:#CAC7D4;" d="M790.92,556.738c-0.966-1.586,4.67-5.149,5.661-3.567c0.991,1.569,0.574,3.663-0.991,4.612
						C793.988,558.772,791.911,558.298,790.92,556.738z"/>
					<path style="fill:#75544B;" d="M790.446,549.67c2.098-1.303,4.828-0.729,6.373,1.207c-0.062-0.017-0.062-0.121-0.062-0.179
						c-1.403-2.215-4.329-2.889-6.589-1.503c-2.215,1.386-2.926,4.317-1.544,6.552c0.1,0.1,0.162,0.1,0.162,0.137
						C787.699,553.728,788.348,551.019,790.446,549.67z"/>
				</g>
				<g>
					<path style="fill:#1A050C;" d="M765.419,617.593c-0.77-1.269-0.338-2.947,0.891-3.737c1.261-0.795,2.967-0.437,3.758,0.869
						c0.754,1.265,0.433,2.968-0.891,3.742C767.97,619.275,766.268,618.842,765.419,617.593z"/>
					<path style="fill:#CAC7D4;" d="M766.8,617.714c-0.491-0.774,2.319-2.472,2.752-1.724c0.516,0.749,0.279,1.741-0.55,2.239
						C768.324,618.721,767.296,618.467,766.8,617.714z"/>
					<path style="fill:#75544B;" d="M766.605,614.309c0.965-0.654,2.335-0.375,3.025,0.575c0,0,0-0.042-0.038-0.079
						c-0.653-1.066-2.056-1.386-3.104-0.712c-1.07,0.654-1.407,2.056-0.774,3.163c0,0,0.041,0,0.058,0.042
						C765.256,616.228,765.598,614.962,766.605,614.309z"/>
				</g>
				<g>
					<path style="fill:#1A050C;" d="M706.656,343.907c-1.76-2.752-0.932-6.409,1.878-8.133c2.755-1.74,6.451-0.891,8.153,1.861
						c1.744,2.788,0.887,6.431-1.881,8.17C712.017,347.548,708.417,346.692,706.656,343.907z"/>
					<path style="fill:#CAC7D4;" d="M709.603,344.144c-1.028-1.643,4.949-5.423,6.015-3.721c1.032,1.644,0.557,3.838-1.145,4.87
						C712.845,346.279,710.673,345.805,709.603,344.144z"/>
					<path style="fill:#75544B;" d="M709.187,336.744c2.193-1.344,5.049-0.795,6.547,1.265c0-0.079,0-0.121-0.017-0.179
						c-1.482-2.314-4.491-3.026-6.884-1.561c-2.335,1.424-3.026,4.532-1.561,6.864c0,0.058,0.095,0.079,0.095,0.12
						C706.198,340.98,706.994,338.15,709.187,336.744z"/>
				</g>
				<g>
					<path style="fill:#1A050C;" d="M703.672,333.576c-1.707-2.768-0.915-6.448,1.898-8.15c2.788-1.702,6.447-0.891,8.166,1.881
						c1.724,2.768,0.891,6.448-1.881,8.166C709.091,337.177,705.408,336.327,703.672,333.576z"/>
					<path style="fill:#CAC7D4;" d="M706.656,333.813c-1.028-1.66,5.007-5.381,6.032-3.738c0.974,1.644,0.474,3.797-1.145,4.849
						C709.803,335.949,707.684,335.474,706.656,333.813z"/>
					<path style="fill:#75544B;" d="M706.198,326.434c2.219-1.406,5.091-0.812,6.647,1.227c-0.075-0.058-0.075-0.1-0.075-0.179
						c-1.39-2.313-4.549-3.047-6.888-1.581c-2.372,1.465-3.026,4.549-1.539,6.884c0,0.038,0.037,0.062,0.116,0.121
						C703.273,330.65,704.025,327.799,706.198,326.434z"/>
				</g>
			</g>
		</g>
	</g>
</g>
</svg>
